<svg version="1.1" id="Layer_1" xmlns="http://www.w3.org/2000/svg" xmlns:xlink="http://www.w3.org/1999/xlink" x="0px" y="0px"
	 width="100%" viewBox="0 0 440 440" enable-background="new 0 0 440 440" xml:space="preserve">
<path fill="#000000" opacity="1.000000" stroke="none" 
	d="
M237.000000,441.000000 
	C158.022293,441.000000 79.544571,441.000000 1.033429,441.000000 
	C1.033429,294.397278 1.033429,147.794525 1.033429,1.095886 
	C147.561050,1.095886 294.122192,1.095886 440.841675,1.095886 
	C440.841675,147.666534 440.841675,294.333252 440.841675,441.000000 
	C373.127838,441.000000 305.313904,441.000000 237.000000,441.000000 
M237.834824,361.020721 
	C223.890701,361.291962 209.946594,361.563202 196.022629,361.110718 
	C199.986954,353.536804 203.992020,345.983551 207.865967,338.363708 
	C208.370789,337.370789 208.705231,335.784088 208.264114,334.897644 
	C204.752426,327.840942 201.165665,320.814240 197.346436,313.919861 
	C192.524200,305.214905 187.320831,296.720367 182.533737,287.996826 
	C175.025269,274.314148 167.698730,260.531189 160.350784,246.760986 
	C155.518295,237.704788 150.988098,228.481262 145.954773,219.539688 
	C139.275146,207.673523 132.938354,195.932526 129.366730,182.438141 
	C125.330795,167.189575 124.106331,152.384659 126.949600,136.966660 
	C130.696060,116.650993 139.317856,98.612068 152.637115,83.078392 
	C163.255783,70.694298 175.747284,60.258869 190.648682,53.077553 
	C191.609131,52.614685 192.343277,51.682228 193.942978,50.321507 
	C186.954849,49.834877 181.200043,48.879089 175.513031,49.184647 
	C169.031113,49.532909 162.627579,51.148708 156.158356,51.962097 
	C139.639618,54.039028 125.163200,61.065002 111.972359,70.722221 
	C106.179924,74.962959 100.929443,80.132614 96.145966,85.514305 
	C90.380531,92.000748 84.405014,98.634064 80.301979,106.173355 
	C75.952911,114.164749 73.412193,123.203033 70.593971,131.949173 
	C66.932365,143.312637 66.804176,155.307861 68.335785,166.799255 
	C70.365578,182.028412 75.392166,196.640778 83.879410,209.806061 
	C86.420860,213.748291 88.509201,217.997375 90.622925,222.197571 
	C95.239365,231.370972 99.620140,240.664505 104.330093,249.788727 
	C107.221848,255.390701 110.798134,260.643158 113.621193,266.275970 
	C119.694107,278.393219 125.268639,290.762604 131.448700,302.823029 
	C136.306061,312.302277 141.949509,321.376282 146.908371,330.806641 
	C152.467865,341.379242 157.649979,352.150238 162.088623,362.981537 
	C148.188660,364.734314 134.242523,366.195801 120.412323,368.388580 
	C115.153908,369.222290 109.969833,371.330658 105.115768,373.627228 
	C101.847832,375.173370 102.223969,378.054321 105.374710,379.826630 
	C111.525818,383.286713 118.068520,384.731750 125.194023,385.261078 
	C139.309845,386.309662 153.340332,388.465332 167.429794,389.936584 
	C171.548340,390.366669 175.751953,389.903473 179.907913,390.068359 
	C194.740021,390.656830 209.565109,391.440887 224.400360,391.917786 
	C228.306061,392.043304 232.233795,391.134521 236.159912,391.034485 
	C252.396927,390.620789 268.640106,390.428925 284.874207,389.933807 
	C288.740417,389.815887 292.578033,388.824860 296.433014,388.264252 
	C303.987152,387.165710 311.516968,385.791595 319.108521,385.092896 
	C325.387451,384.515015 331.125732,382.900452 336.299713,379.301483 
	C339.907349,376.792084 340.151306,374.914215 336.175232,373.142029 
	C331.719696,371.156128 326.783600,370.207245 322.012604,368.977905 
	C306.937378,365.093262 291.593872,363.159058 276.273804,362.214294 
	C283.837494,348.536865 291.467255,334.895447 298.946136,321.171783 
	C306.242981,307.782104 313.399567,294.315857 320.590118,280.868439 
	C324.008514,274.475464 327.363708,268.048645 330.745331,261.635986 
	C332.638123,258.046631 334.526367,254.454895 336.950836,250.160629 
	C337.597260,249.514099 338.478149,248.980362 338.852234,248.202805 
	C341.354767,243.000534 343.524597,237.627258 346.223999,232.532867 
	C352.563416,220.568787 359.899017,209.065277 365.347290,196.720352 
	C368.866974,188.745224 369.762604,179.612000 372.234802,170.236160 
	C373.911865,159.565338 373.388550,149.028595 370.282166,138.655563 
	C368.817474,133.764450 367.318146,128.883713 365.968506,123.268188 
	C364.153503,119.521591 362.762817,115.484642 360.437927,112.086975 
	C355.086609,104.266411 349.737579,96.354607 343.494507,89.266457 
	C339.530975,84.766388 333.963989,81.678612 328.828125,77.319901 
	C327.885773,76.383461 327.107880,75.095306 325.975250,74.565727 
	C316.127106,69.960930 306.294830,65.306114 296.299103,61.037834 
	C287.174072,57.141350 277.279938,57.147503 267.621796,55.742466 
	C255.282547,53.947395 243.415741,56.053215 231.553711,58.012344 
	C218.617966,60.148808 206.349731,65.003326 195.461258,72.349411 
	C187.001785,78.056725 178.522079,84.155174 171.514771,91.479782 
	C163.941055,99.396446 157.814713,108.539665 153.073532,118.882645 
	C148.390427,129.098892 145.413620,139.573425 144.250214,150.335770 
	C142.479019,166.720688 145.156052,182.824112 152.189545,198.726715 
	C155.105606,204.366165 158.024979,210.003891 160.936844,215.645493 
	C164.415558,222.385345 167.769150,229.193298 171.402466,235.848633 
	C174.058716,240.714233 177.079285,245.380936 180.253098,250.781631 
	C182.823608,255.529663 185.413589,260.267303 187.959259,265.028595 
	C190.645950,270.053680 193.290359,275.101379 196.256622,280.781891 
	C197.171951,282.608093 198.016205,284.474243 199.016449,286.252686 
	C201.626968,290.894287 204.305801,295.497498 207.246155,300.768036 
	C208.632126,303.809082 209.839554,306.947906 211.440018,309.871552 
	C215.153275,316.654846 219.056366,323.334229 223.182037,330.701721 
	C228.116821,339.447601 233.096725,348.168671 237.932114,356.969147 
	C238.571808,358.133392 238.475311,359.702179 237.834824,361.020721 
z"/>
<path fill="#00ADDF" opacity="1.000000" stroke="none" 
	d="
M162.996277,362.834930 
	C157.649979,352.150238 152.467865,341.379242 146.908371,330.806641 
	C141.949509,321.376282 136.306061,312.302277 131.448700,302.823029 
	C125.268639,290.762604 119.694107,278.393219 113.621193,266.275970 
	C110.798134,260.643158 107.221848,255.390701 104.330093,249.788727 
	C99.620140,240.664505 95.239365,231.370972 90.622925,222.197571 
	C88.509201,217.997375 86.420860,213.748291 83.879410,209.806061 
	C75.392166,196.640778 70.365578,182.028412 68.335785,166.799255 
	C66.804176,155.307861 66.932365,143.312637 70.593971,131.949173 
	C73.412193,123.203033 75.952911,114.164749 80.301979,106.173355 
	C84.405014,98.634064 90.380531,92.000748 96.145966,85.514305 
	C100.929443,80.132614 106.179924,74.962959 111.972359,70.722221 
	C125.163200,61.065002 139.639618,54.039028 156.158356,51.962097 
	C162.627579,51.148708 169.031113,49.532909 175.513031,49.184647 
	C181.200043,48.879089 186.954849,49.834877 193.942978,50.321507 
	C192.343277,51.682228 191.609131,52.614685 190.648682,53.077553 
	C175.747284,60.258869 163.255783,70.694298 152.637115,83.078392 
	C139.317856,98.612068 130.696060,116.650993 126.949600,136.966660 
	C124.106331,152.384659 125.330795,167.189575 129.366730,182.438141 
	C132.938354,195.932526 139.275146,207.673523 145.954773,219.539688 
	C150.988098,228.481262 155.518295,237.704788 160.350784,246.760986 
	C167.698730,260.531189 175.025269,274.314148 182.533737,287.996826 
	C187.320831,296.720367 192.524200,305.214905 197.346436,313.919861 
	C201.165665,320.814240 204.752426,327.840942 208.264114,334.897644 
	C208.705231,335.784088 208.370789,337.370789 207.865967,338.363708 
	C203.992020,345.983551 199.986954,353.536804 195.668472,361.569275 
	C193.548233,364.741333 191.543762,367.332214 190.070816,370.196472 
	C187.742416,374.724213 184.538086,377.486542 179.198624,377.570770 
	C173.612030,377.658905 170.322479,374.733765 167.876511,370.083191 
	C166.528641,367.520447 164.640717,365.241699 162.996277,362.834930 
z"/>
<path fill="#6B97FC" opacity="1.000000" stroke="none" 
	d="
M151.877167,198.068604 
	C145.156052,182.824112 142.479019,166.720688 144.250214,150.335770 
	C145.413620,139.573425 148.390427,129.098892 153.073532,118.882645 
	C157.814713,108.539665 163.941055,99.396446 171.514771,91.479782 
	C178.522079,84.155174 187.001785,78.056725 195.461258,72.349411 
	C206.349731,65.003326 218.617966,60.148808 231.553711,58.012344 
	C243.415741,56.053215 255.282547,53.947395 267.621796,55.742466 
	C277.279938,57.147503 287.174072,57.141350 296.299103,61.037834 
	C306.294830,65.306114 316.127106,69.960930 325.975250,74.565727 
	C327.107880,75.095306 327.885773,76.383461 328.569305,77.623596 
	C320.482697,75.652527 315.157745,80.941025 309.478577,84.525963 
	C301.984497,89.256538 295.043488,94.862671 287.554596,99.602356 
	C284.522278,101.521507 282.150330,102.902351 283.577515,106.905457 
	C276.910645,105.984077 270.682495,104.291161 264.415955,104.134598 
	C248.005569,103.724602 232.108856,106.596321 217.039413,113.761452 
	C219.719879,121.815727 222.437500,129.981705 225.145538,138.118835 
	C228.913330,136.989594 231.955933,136.077713 234.884308,135.475906 
	C230.574020,137.879089 226.353851,139.925491 222.188950,142.078781 
	C218.259644,144.110260 214.233261,146.015625 210.538300,148.420151 
	C207.265015,150.550247 204.484848,153.422455 201.314499,155.730057 
	C196.671738,159.109406 191.868118,162.267212 187.145813,165.537872 
	C182.134521,169.008713 177.105881,172.455872 172.143478,175.995621 
	C166.115875,180.295166 160.034546,184.536209 154.248505,189.144165 
	C153.009720,190.130737 152.846634,192.557602 152.359924,194.367203 
	C152.039612,195.558136 152.027359,196.831924 151.877167,198.068604 
z"/>
<path fill="#658CFD" opacity="1.000000" stroke="none" 
	d="
M365.834503,123.998283 
	C367.318146,128.883713 368.817474,133.764450 370.282166,138.655563 
	C373.388550,149.028595 373.911865,159.565338 371.735962,170.498779 
	C370.196198,169.591400 369.155334,168.421371 368.032715,167.159470 
	C367.018341,167.858353 366.336884,168.306808 365.677368,168.785446 
	C357.103394,175.008255 348.644775,181.398148 339.925629,187.410248 
	C332.840485,192.295685 325.317993,196.545441 318.213470,201.404617 
	C306.187225,209.630035 294.180115,217.902893 282.509552,226.617264 
	C278.988678,229.246307 273.999939,230.843384 272.630310,235.976776 
	C268.669769,234.282791 265.156708,231.928604 261.377991,231.369339 
	C254.449600,230.343903 247.626480,230.775848 241.635635,235.708252 
	C235.707565,240.588974 234.029892,246.880768 233.516144,253.842590 
	C232.531174,251.731781 231.864609,249.777954 230.945435,247.083710 
	C225.537735,250.729630 220.255890,254.213303 215.060242,257.821167 
	C211.667313,260.177216 208.649155,263.200195 205.020432,265.061340 
	C198.686172,268.310181 193.515579,271.810699 195.953232,280.139191 
	C193.290359,275.101379 190.645950,270.053680 187.959259,265.028595 
	C185.413589,260.267303 182.823608,255.529663 180.105286,250.050049 
	C178.382599,244.229721 179.548553,240.324692 184.576721,237.795700 
	C187.336411,236.407700 190.003204,234.776825 192.531647,232.999100 
	C198.039688,229.126373 203.341080,224.956207 208.895676,221.154129 
	C215.570526,216.585266 222.667831,212.602875 229.132507,207.765533 
	C237.206650,201.723923 237.008835,201.459549 241.590576,209.971863 
	C252.976959,209.991211 263.903412,209.991211 273.677094,209.991211 
	C275.967743,203.636841 276.825836,197.243240 280.201630,192.734848 
	C287.040222,183.601898 295.242828,175.490295 303.191803,166.877335 
	C303.986328,166.159241 304.472107,165.521393 304.986084,164.653778 
	C305.014252,164.423996 305.165771,163.986496 305.322693,163.824280 
	C305.671356,163.427277 305.828369,163.171249 305.961731,162.923737 
	C305.972778,162.953522 305.913757,162.929932 306.258972,162.871552 
	C307.370911,162.226868 308.509979,161.803360 308.848297,161.029694 
	C313.583984,150.199707 323.356659,144.781784 332.503113,138.608597 
	C339.022461,134.208466 345.507507,129.705627 351.619354,124.767738 
	C358.231262,119.425873 359.415863,119.100174 365.834503,123.998283 
z"/>
<path fill="#6388FE" opacity="1.000000" stroke="none" 
	d="
M272.958008,236.126068 
	C273.999939,230.843384 278.988678,229.246307 282.509552,226.617264 
	C294.180115,217.902893 306.187225,209.630035 318.213470,201.404617 
	C325.317993,196.545441 332.840485,192.295685 339.925629,187.410248 
	C348.644775,181.398148 357.103394,175.008255 365.677368,168.785446 
	C366.336884,168.306808 367.018341,167.858353 368.032715,167.159470 
	C369.155334,168.421371 370.196198,169.591400 371.535614,170.879578 
	C369.762604,179.612000 368.866974,188.745224 365.347290,196.720352 
	C359.899017,209.065277 352.563416,220.568787 346.223999,232.532867 
	C343.524597,237.627258 341.354767,243.000534 338.852234,248.202805 
	C338.478149,248.980362 337.597260,249.514099 336.620850,250.007385 
	C335.537506,248.342804 334.461731,245.456726 334.083588,245.545395 
	C331.796387,246.081787 329.452759,246.993134 327.533447,248.351822 
	C323.794312,250.998825 320.451324,254.205124 316.714142,256.855286 
	C308.216766,262.881012 299.607452,268.750610 290.987183,274.600494 
	C287.338409,277.076569 283.415253,279.160309 279.846680,281.740295 
	C270.106293,288.782379 260.602142,296.155273 250.780396,303.079376 
	C244.570938,307.456909 237.943741,311.239532 231.533905,315.335907 
	C226.169540,318.764130 223.866302,324.032043 222.882507,330.055725 
	C219.056366,323.334229 215.153275,316.654846 211.440018,309.871552 
	C209.839554,306.947906 208.632126,303.809082 207.109192,300.015381 
	C206.957062,298.597260 207.112457,297.870880 206.900055,297.275787 
	C204.969635,291.867523 206.984116,288.911011 212.035645,286.255920 
	C218.301605,282.962524 224.690186,279.171295 229.556335,274.166382 
	C233.804413,269.797150 237.657288,268.378723 243.452545,270.111877 
	C252.496323,274.408966 261.106476,274.669495 269.815338,270.058319 
	C283.701752,262.705780 282.125244,242.509506 272.958008,236.126068 
z"/>
<path fill="#6891FD" opacity="1.000000" stroke="none" 
	d="
M241.130646,209.952515 
	C237.008835,201.459549 237.206650,201.723923 229.132507,207.765533 
	C222.667831,212.602875 215.570526,216.585266 208.895676,221.154129 
	C203.341080,224.956207 198.039688,229.126373 192.531647,232.999100 
	C190.003204,234.776825 187.336411,236.407700 184.576721,237.795700 
	C179.548553,240.324692 178.382599,244.229721 179.947464,249.727371 
	C177.079285,245.380936 174.058716,240.714233 171.402466,235.848633 
	C167.769150,229.193298 164.415558,222.385345 160.936844,215.645493 
	C158.024979,210.003891 155.105606,204.366165 152.033356,198.397659 
	C152.027359,196.831924 152.039612,195.558136 152.359924,194.367203 
	C152.846634,192.557602 153.009720,190.130737 154.248505,189.144165 
	C160.034546,184.536209 166.115875,180.295166 172.143478,175.995621 
	C177.105881,172.455872 182.134521,169.008713 187.145813,165.537872 
	C191.868118,162.267212 196.671738,159.109406 201.314499,155.730057 
	C204.484848,153.422455 207.265015,150.550247 210.538300,148.420151 
	C214.233261,146.015625 218.259644,144.110260 222.188950,142.078781 
	C226.353851,139.925491 230.574020,137.879089 235.098297,135.399857 
	C235.426529,135.013718 235.877411,134.958817 236.080231,134.851608 
	C236.547302,134.585434 236.782196,134.391006 237.311707,134.088806 
	C238.075531,133.973007 238.515381,133.929520 239.136017,134.051056 
	C239.877258,133.865860 240.437698,133.515671 241.423218,133.090851 
	C249.010010,131.145935 256.068665,131.523056 263.016632,134.028687 
	C270.498901,136.726974 274.716492,151.164246 269.746216,157.480377 
	C263.866516,164.952194 257.850952,172.318787 251.809311,179.661102 
	C244.555832,188.476120 240.268921,198.296356 241.130646,209.952515 
z"/>
<path fill="#6184FE" opacity="1.000000" stroke="none" 
	d="
M223.032272,330.378723 
	C223.866302,324.032043 226.169540,318.764130 231.533905,315.335907 
	C237.943741,311.239532 244.570938,307.456909 250.780396,303.079376 
	C260.602142,296.155273 270.106293,288.782379 279.846680,281.740295 
	C283.415253,279.160309 287.338409,277.076569 290.987183,274.600494 
	C299.607452,268.750610 308.216766,262.881012 316.714142,256.855286 
	C320.451324,254.205124 323.794312,250.998825 327.533447,248.351822 
	C329.452759,246.993134 331.796387,246.081787 334.083588,245.545395 
	C334.461731,245.456726 335.537506,248.342804 336.353760,250.359192 
	C334.526367,254.454895 332.638123,258.046631 330.745331,261.635986 
	C327.363708,268.048645 324.008514,274.475464 320.590118,280.868439 
	C313.399567,294.315857 306.242981,307.782104 298.946136,321.171783 
	C291.467255,334.895447 283.837494,348.536865 275.856812,362.721680 
	C273.304047,366.767334 271.176178,370.310394 269.030762,373.842804 
	C264.812469,380.788300 255.744064,382.399628 250.315109,376.848572 
	C248.044693,374.527161 246.705017,371.320190 244.762329,368.646545 
	C242.867538,366.038788 240.743301,363.597809 238.719788,361.083588 
	C238.475311,359.702179 238.571808,358.133392 237.932114,356.969147 
	C233.096725,348.168671 228.116821,339.447601 223.032272,330.378723 
z"/>
<path fill="#9EC8EA" opacity="1.000000" stroke="none" 
	d="
M238.277313,361.052155 
	C240.743301,363.597809 242.867538,366.038788 244.762329,368.646545 
	C246.705017,371.320190 248.044693,374.527161 250.315109,376.848572 
	C255.744064,382.399628 264.812469,380.788300 269.030762,373.842804 
	C271.176178,370.310394 273.304047,366.767334 275.738037,363.050171 
	C291.593872,363.159058 306.937378,365.093262 322.012604,368.977905 
	C326.783600,370.207245 331.719696,371.156128 336.175232,373.142029 
	C340.151306,374.914215 339.907349,376.792084 336.299713,379.301483 
	C331.125732,382.900452 325.387451,384.515015 319.108521,385.092896 
	C311.516968,385.791595 303.987152,387.165710 296.433014,388.264252 
	C292.578033,388.824860 288.740417,389.815887 284.874207,389.933807 
	C268.640106,390.428925 252.396927,390.620789 236.159912,391.034485 
	C232.233795,391.134521 228.306061,392.043304 224.400360,391.917786 
	C209.565109,391.440887 194.740021,390.656830 179.907913,390.068359 
	C175.751953,389.903473 171.548340,390.366669 167.429794,389.936584 
	C153.340332,388.465332 139.309845,386.309662 125.194023,385.261078 
	C118.068520,384.731750 111.525818,383.286713 105.374710,379.826630 
	C102.223969,378.054321 101.847832,375.173370 105.115768,373.627228 
	C109.969833,371.330658 115.153908,369.222290 120.412323,368.388580 
	C134.242523,366.195801 148.188660,364.734314 162.542450,362.908234 
	C164.640717,365.241699 166.528641,367.520447 167.876511,370.083191 
	C170.322479,374.733765 173.612030,377.658905 179.198624,377.570770 
	C184.538086,377.486542 187.742416,374.724213 190.070816,370.196472 
	C191.543762,367.332214 193.548233,364.741333 195.658386,361.931152 
	C209.946594,361.563202 223.890701,361.291962 238.277313,361.052155 
z"/>
<path fill="#6891FD" opacity="1.000000" stroke="none" 
	d="
M365.901489,123.633240 
	C359.415863,119.100174 358.231262,119.425873 351.619354,124.767738 
	C345.507507,129.705627 339.022461,134.208466 332.503113,138.608597 
	C323.356659,144.781784 313.583984,150.199707 308.848297,161.029694 
	C308.509979,161.803360 307.370911,162.226868 306.305023,162.493561 
	C306.845276,160.101074 307.550903,157.961517 308.545807,155.966202 
	C314.831238,143.360641 312.224365,131.739777 304.356628,120.953438 
	C299.272980,113.983940 291.733582,110.178200 283.998718,106.834068 
	C282.150330,102.902351 284.522278,101.521507 287.554596,99.602356 
	C295.043488,94.862671 301.984497,89.256538 309.478577,84.525963 
	C315.157745,80.941025 320.482697,75.652527 328.713257,77.942398 
	C333.963989,81.678612 339.530975,84.766388 343.494507,89.266457 
	C349.737579,96.354607 355.086609,104.266411 360.437927,112.086975 
	C362.762817,115.484642 364.153503,119.521591 365.901489,123.633240 
z"/>
<path fill="#658BFD" opacity="1.000000" stroke="none" 
	d="
M243.117783,269.959595 
	C237.657288,268.378723 233.804413,269.797150 229.556335,274.166382 
	C224.690186,279.171295 218.301605,282.962524 212.035645,286.255920 
	C206.984116,288.911011 204.969635,291.867523 206.900055,297.275787 
	C207.112457,297.870880 206.957062,298.597260 206.964813,299.689392 
	C204.305801,295.497498 201.626968,290.894287 199.016449,286.252686 
	C198.016205,284.474243 197.171951,282.608093 196.104919,280.460541 
	C193.515579,271.810699 198.686172,268.310181 205.020432,265.061340 
	C208.649155,263.200195 211.667313,260.177216 215.060242,257.821167 
	C220.255890,254.213303 225.537735,250.729630 230.945435,247.083710 
	C231.864609,249.777954 232.531174,251.731781 233.589020,254.231567 
	C235.414566,260.808136 237.586304,266.394928 243.117783,269.959595 
z"/>
<path fill="#000000" opacity="1.000000" stroke="none" 
	d="
M283.577515,106.905457 
	C291.733582,110.178200 299.272980,113.983940 304.356628,120.953438 
	C312.224365,131.739777 314.831238,143.360641 308.545807,155.966202 
	C307.550903,157.961517 306.845276,160.101074 305.959839,162.551941 
	C305.913757,162.929932 305.972778,162.953522 305.713013,163.012634 
	C305.357452,163.376678 305.261597,163.681580 305.165771,163.986496 
	C305.165771,163.986496 305.014252,164.423996 304.640961,164.709930 
	C303.806152,165.649780 303.344635,166.303696 302.883087,166.957611 
	C295.242828,175.490295 287.040222,183.601898 280.201630,192.734848 
	C276.825836,197.243240 275.967743,203.636841 273.677094,209.991211 
	C263.903412,209.991211 252.976959,209.991211 241.590576,209.971863 
	C240.268921,198.296356 244.555832,188.476120 251.809311,179.661102 
	C257.850952,172.318787 263.866516,164.952194 269.746216,157.480377 
	C274.716492,151.164246 270.498901,136.726974 263.016632,134.028687 
	C256.068665,131.523056 249.010010,131.145935 241.119141,133.021820 
	C239.911728,133.313629 239.433472,133.599838 238.955231,133.886047 
	C238.515381,133.929520 238.075531,133.973007 237.046051,134.055481 
	C236.263412,134.382599 236.070419,134.670715 235.877411,134.958817 
	C235.877411,134.958817 235.426529,135.013718 235.212524,135.089767 
	C231.955933,136.077713 228.913330,136.989594 225.145538,138.118835 
	C222.437500,129.981705 219.719879,121.815727 217.039413,113.761452 
	C232.108856,106.596321 248.005569,103.724602 264.415955,104.134598 
	C270.682495,104.291161 276.910645,105.984077 283.577515,106.905457 
z"/>
<path fill="#000000" opacity="1.000000" stroke="none" 
	d="
M243.452545,270.111877 
	C237.586304,266.394928 235.414566,260.808136 233.907440,254.388550 
	C234.029892,246.880768 235.707565,240.588974 241.635635,235.708252 
	C247.626480,230.775848 254.449600,230.343903 261.377991,231.369339 
	C265.156708,231.928604 268.669769,234.282791 272.630310,235.976776 
	C282.125244,242.509506 283.701752,262.705780 269.815338,270.058319 
	C261.106476,274.669495 252.496323,274.408966 243.452545,270.111877 
z"/>
<path fill="#6891FD" opacity="1.000000" stroke="none" 
	d="
M303.191803,166.877350 
	C303.344635,166.303696 303.806152,165.649780 304.612793,164.939713 
	C304.472107,165.521393 303.986328,166.159241 303.191803,166.877350 
z"/>
<path fill="#6891FD" opacity="1.000000" stroke="none" 
	d="
M305.322693,163.824280 
	C305.261597,163.681580 305.357452,163.376678 305.701965,162.982849 
	C305.828369,163.171249 305.671356,163.427277 305.322693,163.824280 
z"/>
<path fill="#6B97FC" opacity="1.000000" stroke="none" 
	d="
M239.136017,134.051041 
	C239.433472,133.599838 239.911728,133.313629 240.694061,133.096466 
	C240.437698,133.515671 239.877258,133.865860 239.136017,134.051041 
z"/>
<path fill="#6B97FC" opacity="1.000000" stroke="none" 
	d="
M236.080231,134.851608 
	C236.070419,134.670715 236.263412,134.382599 236.722076,134.127808 
	C236.782196,134.391006 236.547302,134.585434 236.080231,134.851608 
z"/>
</svg>