<svg version="1.1" id="Layer_1" xmlns="http://www.w3.org/2000/svg" xmlns:xlink="http://www.w3.org/1999/xlink" x="0px" y="0px"
	 width="100%" viewBox="0 0 256 256" enable-background="new 0 0 256 256" xml:space="preserve">
<path fill="#000000" opacity="1.000000" stroke="none" 
	d="
M117.000000,257.000000 
	C78.000000,257.000000 39.500004,257.000000 1.000005,257.000000 
	C1.000003,171.666672 1.000003,86.333351 1.000002,1.000017 
	C86.333321,1.000011 171.666641,1.000011 257.000000,1.000005 
	C257.000000,86.333313 257.000000,171.666626 257.000000,256.999969 
	C210.500000,257.000000 164.000000,257.000000 117.000000,257.000000 
M65.087692,80.505615 
	C50.328205,89.919708 41.073601,102.660774 39.770725,120.701004 
	C39.499043,124.462814 40.487587,124.906624 43.524586,124.825905 
	C55.475773,124.508263 67.454552,124.690331 79.377197,123.948875 
	C104.375290,122.394279 124.495407,99.964859 124.260963,73.997643 
	C113.813217,73.997643 103.351898,74.150436 92.897209,73.952774 
	C83.287766,73.771088 74.244370,75.693680 65.087692,80.505615 
M171.242996,74.019684 
	C158.655975,74.019684 146.068954,74.019684 133.420303,74.019684 
	C133.650864,75.917091 133.885895,77.206421 133.953491,78.504478 
	C134.925934,97.175362 148.432770,114.851776 165.977127,121.107826 
	C182.438889,126.977829 199.426895,124.064720 216.202774,124.674911 
	C216.967072,124.702713 218.430862,123.216560 218.460541,122.395493 
	C218.548874,119.950584 218.294205,117.442772 217.802673,115.035263 
	C213.245773,92.715477 195.154160,76.496132 171.242996,74.019684 
M143.918182,153.426376 
	C136.928879,162.242676 133.974731,172.428329 133.404190,184.002335 
	C144.488892,184.002335 155.292557,183.672989 166.069839,184.066513 
	C194.010452,185.086716 217.491669,162.228195 218.267929,137.056076 
	C218.378220,133.479645 217.519714,133.164154 214.753357,133.179398 
	C205.260635,133.231689 195.765167,133.065002 186.274948,133.227371 
	C169.395340,133.516190 155.019928,139.367645 143.918182,153.426376 
M62.003189,175.524704 
	C66.780380,177.690414 71.412621,181.250259 76.361481,181.764771 
	C92.270203,183.418701 108.295837,183.948227 124.699036,184.936920 
	C124.357361,182.257309 124.153923,181.003586 124.043106,179.741745 
	C122.274529,159.602325 111.827240,145.383408 93.555763,137.513779 
	C76.851845,130.319290 58.890945,133.857986 41.437737,133.348648 
	C40.848358,133.331436 39.636528,135.051086 39.677784,135.915161 
	C40.470856,152.525391 48.094608,165.400757 62.003189,175.524704 
z"/>
<path fill="#5FD700" opacity="1.000000" stroke="none" 
	d="
M65.405716,80.311584 
	C74.244370,75.693680 83.287766,73.771088 92.897209,73.952774 
	C103.351898,74.150436 113.813217,73.997643 124.260963,73.997643 
	C124.495407,99.964859 104.375290,122.394279 79.377197,123.948875 
	C67.454552,124.690331 55.475773,124.508263 43.524586,124.825905 
	C40.487587,124.906624 39.499043,124.462814 39.770725,120.701004 
	C41.073601,102.660774 50.328205,89.919708 65.405716,80.311584 
z"/>
<path fill="#5FD700" opacity="1.000000" stroke="none" 
	d="
M171.709717,74.025681 
	C195.154160,76.496132 213.245773,92.715477 217.802673,115.035263 
	C218.294205,117.442772 218.548874,119.950584 218.460541,122.395493 
	C218.430862,123.216560 216.967072,124.702713 216.202774,124.674911 
	C199.426895,124.064720 182.438889,126.977829 165.977127,121.107826 
	C148.432770,114.851776 134.925934,97.175362 133.953491,78.504478 
	C133.885895,77.206421 133.650864,75.917091 133.420303,74.019684 
	C146.068954,74.019684 158.655975,74.019684 171.709717,74.025681 
z"/>
<path fill="#5FD700" opacity="1.000000" stroke="none" 
	d="
M144.049133,153.091293 
	C155.019928,139.367645 169.395340,133.516190 186.274948,133.227371 
	C195.765167,133.065002 205.260635,133.231689 214.753357,133.179398 
	C217.519714,133.164154 218.378220,133.479645 218.267929,137.056076 
	C217.491669,162.228195 194.010452,185.086716 166.069839,184.066513 
	C155.292557,183.672989 144.488892,184.002335 133.404190,184.002335 
	C133.974731,172.428329 136.928879,162.242676 144.049133,153.091293 
z"/>
<path fill="#5FD700" opacity="1.000000" stroke="none" 
	d="
M61.714691,175.301636 
	C48.094608,165.400757 40.470856,152.525391 39.677784,135.915161 
	C39.636528,135.051086 40.848358,133.331436 41.437737,133.348648 
	C58.890945,133.857986 76.851845,130.319290 93.555763,137.513779 
	C111.827240,145.383408 122.274529,159.602325 124.043106,179.741745 
	C124.153923,181.003586 124.357361,182.257309 124.699036,184.936920 
	C108.295837,183.948227 92.270203,183.418701 76.361481,181.764771 
	C71.412621,181.250259 66.780380,177.690414 61.714691,175.301636 
z"/>
</svg>